<?xml version="1.0" encoding="UTF-8"?>
<svg enable-background="new 612.6503 375.9145 1494.2572 3070.0542" version="1.1" viewBox="612.6503 375.9145 1494.2572 3070.0542" xmlns="http://www.w3.org/2000/svg">
 <g stroke-width=".5">
  <path d="m1069.7 461.33c19.99-8.99 41.29-15.7 63.24-17.29 17.68-1.25 36.09 1.4 51.64 10.3 8.73 4.91 16.46 11.6 22.63 19.5-0.02 0.77-0.0599 2.32-0.08 3.1 21.81 0.54 44.02 4.16 63.5 14.42 13.73 7.67 26.44 18.86 31.89 34 4.1699 10.29 3.36 22.08-0.89 32.21-6.1801 14.4-17.15 26.14-29.09 36.01-18.22 14.97-38.78 26.97-60.21 36.7-0.22 0.71-0.6699 2.1299-0.89 2.83-0.83-0.8-1.6599-1.6-2.46-2.39-0.53 0.95-1.02 1.92-1.52 2.88-21.28 39.82-54.45 73.63-94.95 93.92-5.61 2.58-11.25 5.13-16.96 7.47-10.1 3.27-20.16 7.24-30.84 7.9-7.49 5.49-12.13 14.13-15.89 22.45-0.87 0.68-1.6899 1.53-2.7999 1.77-5.39 1.45-11 1.99-16.34 3.61-2.2 0.83-4.6899 2.64-4.5099 5.27 0.1899 4.69 0.72 9.37 0.7 14.07-0.2 7 6.8199 10.77 9.4 16.64 4.3099 9.95 7.34 20.56 13.29 29.72 1.8601 2.88 4.65 4.99 7.6101 6.67 2 19.12 1.72 39-4.79 57.29-1.1 3.41-3.21 6.45-3.96 9.99-2.17 1.46-4.2101 3.14-5.8401 5.2-4.1899 4.98-9.4299 9.19-15.52 11.57-3.59 1.38-7.5399 1.41-11.08 2.89-13.49 6.8-26.14 18.02-29.57 33.32-3.53 17.08 3.39 34.3 12.88 48.24 3.05 4.5099 6.08 9.24 10.65 12.39 4.36 3.46 9.99 5.14 13.65 9.52 13.75 11.27 26.02 24.82 34.03 40.82 4.76 9.51 8.7 19.45 11.6 29.69-7.51 2.25-14.99 4.65-22.4 7.1899-4.01-15.61-13.94-30.09-28.49-37.54-9.05-5.13-19.56-6.12-29.3-9.3101-16.96-5.2899-33.44-12.85-47.46-23.89-6.16-5.1699-12.7-10.52-16.1-18-6.14-13.21-7.77-28.09-7.02-42.51 1.13-20.6 6.58-40.73 14.02-59.89 2.33-6.23 5.89-11.86 8.76-17.82 6.32-18.74 4.04-40.27-6.42-57.11-2.01-3.54-4.92-6.47-6.76-10.09-9.4-19.24-14.62-40.61-14.29-62.06 0.28-24.84 7.9-49.33 20.55-70.62 4.01-6.45 8.13-13.12 14.15-17.9 12.99-9.52 24.68-21.08 33.12-34.88 10.69-17.25 15.31-37.31 19.16-57 4.65-22.95 8.82-46.44 19.38-67.58 11.1-22.23 27.03-41.85 45.47-58.42 1.74-1.69 4.14-2.9 5.11-5.25z" fill="#644D35" stroke="#644D35"/>
  <path d="m1247.9 452.99c39.77-2.62 81.04 2.04 117.04 20.06 29.64 14.75 54.79 39 69.15 68.97 3.83 7.65 6.11 15.93 9.12 23.91 10.46 29.12 20.79 58.88 22.47 90.03 0.5801 6.34-0.4299 12.91 1.74 19.03 2.37 7.02 7.3101 12.91 13.06 17.47 3.89 3.23 8.67 5.22 12.36 8.74 12.12 10.34 22.28 23.95 25.25 39.9 3.47 17.63-2.15 35.73-11.06 50.89-5.9401 10.08-13.22 19.34-21.35 27.75-4.02 4.32-8.89 7.83-12.36 12.66-6.8199 8.7599-11.67 19.39-12.11 30.6-0.84 15.44 6.21 30.23 15.93 41.83 4.84 6.18 11.57 10.42 16.92 16.1 11.84 11.81 21.34 27.1 22.4 44.16 1.2 17.41-6.35 34.15-16.69 47.75-7.8601 10.35-17.28 19.48-27.58 27.36-4.46 2.12-9.1 4.3-14.09 4.63-20.82 2.2301-41.8 7.41-59.76 18.52-15.4 9.4501-27.79 24.2-32.91 41.67-10.44-3.5601-20.9-7.11-31.55-10-0.15-7.27 1.11-14.78 5.26-20.89 4.5299-7.61 11.59-13.22 18.69-18.3 17.31-12.13 36.27-21.84 52.6-35.37 11.55-9.82 22.97-20.67 29.29-34.73 5.42-10.98 5.9301-24.55 0.02-35.46-7.51-14.99-21.67-25.03-35.82-33.21-8.88-4.71-17.9-9.29-27.47-12.46-2.66-0.77-5.4-1.9-6.62-4.58-11.65-18.23-10.07-41.19-5.71-61.45 6.0399-4.96 8.83-12.44 12.11-19.28 3.01-6.45 4.3199-13.69 8.53-19.55 1.9399-3.01 4.38-5.74 5.8199-9.05 0.79-4.51 0.8101-9.12 1.23-13.67 0.4301-3.15-1.6-5.75-3.2-8.21 1.73-17.01-2.77-34.05-10.34-49.19-7.05-14.17-16.35-27.21-27.3-38.63-35.8 5.13-73.06-2.53-104.22-20.79-12.87-7.47-24.88-16.49-35.33-27.09 0.2201-0.7 0.67-2.12 0.89-2.83 21.43-9.73 41.99-21.73 60.21-36.7 11.94-9.87 22.91-21.61 29.09-36.01 4.25-10.13 5.0599-21.92 0.89-32.21-5.4501-15.14-18.16-26.33-31.89-34-19.48-10.26-41.69-13.88-63.5-14.42 0.02-0.78 0.0599-2.33 0.08-3.1 0.4401 0.52 1.3301 1.57 1.77 2.1 4.23-6.56 11.55-10.04 18.14-13.75 6.81-3.28 13.52-7.1 20.8-9.2z" fill="#463626" stroke="#463626"/>
  <path d="m1209 630.72c0.8 0.79 1.63 1.59 2.46 2.39 10.45 10.6 22.46 19.62 35.33 27.09 31.16 18.26 68.42 25.92 104.22 20.79 10.95 11.42 20.25 24.46 27.3 38.63 7.5699 15.14 12.07 32.18 10.34 49.19-23.51-7.03-48.38-6.89-72.69-6.63-12.01-0.25-23.86 2.2-35.86 2.23-10.64 0.8-21.28 2.15-31.74 4.22-8.27 2.7-16.92 3.85-25.25 6.3-5.96 1.64-12.17 2.95-18.34 1.81 0.79-0.17 2.38-0.52 3.17-0.7 0.1499-42.01 0.0399-84.02 0.0699-126.03-0.08-5.47 0.41-10.98-0.53-16.41 0.5001-0.96 0.9901-1.93 1.5201-2.88m70.07 103.52c-14.35 4.99-29.19 13.14-35.89 27.5 22.76-10.32 46.67-17.87 70.83-24.12 19.49-4.89 39.14-9.2 59-12.34-6.27-1.1801-12.69-0.7401-19.03-0.97-25.21 0.04-50.84 1.89-74.91 9.93z" fill="#E5BC84" stroke="#E5BC84"/>
  <path d="m1207.5 633.6c0.9401 5.4301 0.4501 10.94 0.53 16.41-0.03 42.01 0.08 84.02-0.0699 126.03-0.79 0.18-2.38 0.53-3.17 0.7-12.18-0.78-23.72-5.34-35.77-7.02-25.73-4.47-51.91-5.4399-77.99-5.2-14.3-0.04-28.6 0.76-42.82 2.24l0.6499-1.42c3.76-8.32 8.4-16.96 15.89-22.45 10.68-0.66 20.74-4.63 30.84-7.9 27.75 6.81 55.3 14.95 81.36 26.8-6.4701-13.64-20.25-21.81-33.93-26.82-9.86-3.5099-20.1-6.0099-30.47-7.45 40.5-20.29 73.67-54.1 94.95-93.92z" fill="#F1D4A8" stroke="#F1D4A8"/>
  <path d="m1279.1 734.24c24.07-8.04 49.7-9.89 74.91-9.93 6.3401 0.23 12.76-0.21 19.03 0.97-19.86 3.14-39.51 7.45-59 12.34-24.16 6.25-48.07 13.8-70.83 24.12 6.7-14.36 21.54-22.51 35.89-27.5z" fill="#2C3D4D" stroke="#2C3D4D"/>
  <path d="m1095.6 734.99c5.71-2.34 11.35-4.89 16.96-7.47 10.37 1.44 20.61 3.94 30.47 7.45 13.68 5.01 27.46 13.18 33.93 26.82-26.06-11.85-53.61-19.99-81.36-26.8z" fill="#2C3D4D" stroke="#2C3D4D"/>
  <path d="m1280.1 764.41c12-0.03 23.85-2.48 35.86-2.23 24.31-0.26 49.18-0.4 72.69 6.63 1.6 2.46 3.63 5.06 3.2 8.21-0.4199 4.55-0.4399 9.16-1.23 13.67-1.4399 3.31-3.88 6.04-5.8199 9.05-4.2101 5.86-5.52 13.1-8.53 19.55-3.28 6.84-6.0701 14.32-12.11 19.28-10.48 5.91-22.63 7.27-34.37 8.51-13.58 0.94-27.2 1.73-40.8 1-11.45-0.74-23.13-1.06-34.11-4.69-5.58-1.83-10.62-5.26-14.22-9.91-6.91-8.88-11.27-19.38-15.34-29.78-1.2301-2.88-2.39-6.11-5.1101-7.92-3.58-2.32-8.0299-2.38-12.13-2.3701-5.2599 0.1201-11.6 1.48-13.84 6.9-3.1699 7.51-5.2999 15.46-9.09 22.73-3.9301 7.6-8.67 15.47-16.42 19.68-8.1599 4.4301-17.59 5.3701-26.65 6.39-22.25 1.91-44.86 3.27-66.97-0.66-6.47-1.09-12.97-2.53-18.92-5.36-2.9601-1.6801-5.75-3.79-7.6101-6.67-5.95-9.16-8.98-19.77-13.29-29.72-2.5801-5.87-9.6-9.64-9.4-16.64 0.02-4.7-0.51-9.38-0.7-14.07-0.1801-2.63 2.3099-4.44 4.5099-5.27 5.3401-1.62 10.95-2.16 16.34-3.61 1.11-0.24 1.9299-1.09 2.7999-1.77l-0.6499 1.42c14.22-1.48 28.52-2.28 42.82-2.24 26.08-0.24 52.26 0.73 77.99 5.2 12.05 1.6801 23.59 6.2401 35.77 7.02 6.17 1.14 12.38-0.17 18.34-1.81 8.3301-2.45 16.98-3.6 25.25-6.3 10.46-2.0699 21.1-3.4199 31.74-4.2199m18.48 3.48c-15.63 1.27-31.4 2.32-46.7 5.98-5.53 1.67-11.65 2.9-15.87 7.13-4.13 4.18-3.86 10.58-3.34 16 1.35 9.81 4.6799 19.34 9.34 28.06 3.62 6.88 9.4301 12.97 17.06 15.21 9.24 2.84 18.97 3.53 28.57 4.29 14.66 0.32 29.42 0.59 43.98-1.57 10.38-1.4 21.8-2.14 30.12-9.27 5.87-4.83 7.14-12.64 9.8-19.33 3.98-9.96 4.87-20.79 5.27-31.4 0.4299-4.39-1.6101-9.21-5.92-10.87-14.31-5.6-29.93-4.31-44.95-5.3-9.0999 0.79-18.26 0.33-27.36 1.07m-225.05 2c-8.8301 0.72-17.83 1.45-26.16 4.68-2.8099 0.75-2.79 4.08-3.3199 6.39-3.48 19.15 1.97 38.91 11.69 55.44 3.4 3.84 8.54 5.52 13.35 6.89 22.23 5.13 45.36 5.28 67.91 2.42 10.48-1.2 21.66-2.04 30.71-8.01 6.2101-4.58 9.4701-11.91 12.37-18.83 3.5901-9.47 6.16-19.64 5.29-29.83-0.42-4.94-4.28-8.91-8.75-10.62-8.54-3.32-17.66-4.69-26.68-5.95-25.29-3.66-50.93-3.31-76.41-2.58z" fill="#453F3F" stroke="#453F3F"/>
  <path d="m1298.6 767.89c9.1001-0.74 18.26-0.28 27.36-1.07 15.02 0.99 30.64-0.3 44.95 5.3 4.3099 1.66 6.35 6.48 5.92 10.87-0.4 10.61-1.29 21.44-5.27 31.4-2.66 6.69-3.9301 14.5-9.8 19.33-8.3199 7.13-19.74 7.8701-30.12 9.27-14.56 2.16-29.32 1.89-43.98 1.57-9.6-0.76-19.33-1.45-28.57-4.29-7.63-2.24-13.44-8.33-17.06-15.21-4.66-8.72-7.99-18.25-9.34-28.06-0.52-5.42-0.79-11.82 3.34-16 4.22-4.23 10.34-5.46 15.87-7.13 15.3-3.66 31.07-4.71 46.7-5.98m-38.41 26.1l1.2899-0.35c-5.99 5.61-12.15 11.21-16.41 18.32 9.6799 3.94 19.94 5.96 30.05 8.43 3.3 1.77 7.2201 1.78 10.85 2.41 18.11 1.59 37.51 0.32 53.47-9.21 14.54-9.14 26.31-22.21 35.55-36.58-16.86-4.65-34.44-6.67-51.9-6.26-22.56 1.18-45.6 8.32-62.9 23.24z" fill="#E5BC84" stroke="#E5BC84"/>
  <path d="m1073.5 769.89c25.48-0.73 51.12-1.08 76.41 2.58 9.0199 1.26 18.14 2.63 26.68 5.95 4.47 1.71 8.33 5.68 8.75 10.62 0.87 10.19-1.7 20.36-5.29 29.83-2.8999 6.92-6.1599 14.25-12.37 18.83-9.0499 5.97-20.23 6.81-30.71 8.01-22.55 2.86-45.68 2.71-67.91-2.42-4.8099-1.37-9.95-3.05-13.35-6.89-9.72-16.53-15.17-36.29-11.69-55.44 0.5299-2.31 0.51-5.64 3.3199-6.39 8.33-3.23 17.33-3.96 26.16-4.68m-14.03 3.8c-4.86 1.08-9.9299 1.59-14.47 3.69 10.73 15.47 23.54 30.41 40.64 38.99 18.17 8.07 39.02 8.59 58.29 4.77-0.22-0.08-0.6599-0.25-0.88-0.33 10.68-2.72 21.67-4.53 31.85-8.92-4.29-7.01-10.33-12.62-16.23-18.22l1.16 0.4c-9.0499-8.3-20.43-13.7-31.95-17.68-22-7.45-45.82-6.83-68.41-2.7z" fill="#F1D4A8" stroke="#F1D4A8"/>
  <path d="m1059.5 773.69c22.59-4.13 46.41-4.75 68.41 2.7 11.52 3.98 22.9 9.38 31.95 17.68l-1.16-0.4c-8.83-3.17-17.93-5.46-27.02-7.73 2.0499 4.03 3.61 8.44 3.2899 13.04-0.24 8.92-6.46 17.37-15.03 20-9.5901 3.31-20.96-1.62-25.41-10.66-4.87-8.97-2.36-20.68 5.1699-27.38-12.99-0.4-25.98 0.94-38.78 3.07 5.59 15.22 19.07 26.41 34.03 31.88 15.29 5.58 32.03 6.99 48.13 4.92 0.2201 0.08 0.66 0.25 0.88 0.33-19.27 3.82-40.12 3.3-58.29-4.77-17.1-8.58-29.91-23.52-40.64-38.99 4.54-2.1 9.6099-2.61 14.47-3.69m63.75 14.67c-4.27 1.67-4.27 8.58-0.02 10.27 3.11 1.44 6.64-1.39 6.76-4.6 0.53-3.56-3.21-7.26-6.74-5.67z" fill="#2C3D4D" stroke="#2C3D4D"/>
  <path d="m1260.2 793.99c17.3-14.92 40.34-22.06 62.9-23.24 17.46-0.41 35.04 1.61 51.9 6.26-9.24 14.37-21.01 27.44-35.55 36.58-15.96 9.53-35.36 10.8-53.47 9.21-3.6299-0.63-7.5499-0.64-10.85-2.41 17.38 2.85 35.7 1.14 52.12-5.35 14.04-5.69 26.59-16.54 31.85-31.03-12.8-2.14-25.78-3.47-38.76-3.07 4.36 4.17 7.49 9.82 7.6599 15.96 0.67 9.9-6.1699 19.92-15.93 22.28-6.52 2.05-13.9 0.22-19.08-4.11-8.59-6.85-10.2-19.89-4.63-29.13-9.0399 2.26-18.11 4.52-26.87 7.7l-1.2899 0.35m52.1-5.64c-4.3 1.66-4.3 8.65 0.01 10.31 3.09 1.3701 6.5599-1.42 6.7-4.59 0.56-3.56-3.17-7.29-6.71-5.72z" fill="#2C3D4D" stroke="#2C3D4D"/>
  <path d="m1060.9 784.01c12.8-2.13 25.79-3.47 38.78-3.07-7.5299 6.7-10.04 18.41-5.1699 27.38 4.45 9.04 15.82 13.97 25.41 10.66 8.5699-2.63 14.79-11.08 15.03-20 0.3201-4.6-1.24-9.01-3.2899-13.04 9.09 2.27 18.19 4.56 27.02 7.73 5.9 5.6 11.94 11.21 16.23 18.22-10.18 4.39-21.17 6.2-31.85 8.92-16.1 2.07-32.84 0.66-48.13-4.92-14.96-5.47-28.44-16.66-34.03-31.88z" fill="#fff" stroke="#fff"/>
  <path d="m1320.3 780.94c12.98-0.4 25.96 0.93 38.76 3.07-5.26 14.49-17.81 25.34-31.85 31.03-16.42 6.4901-34.74 8.2-52.12 5.35-10.11-2.47-20.37-4.49-30.05-8.43 4.26-7.11 10.42-12.71 16.41-18.32 8.76-3.18 17.83-5.44 26.87-7.7-5.5699 9.24-3.96 22.28 4.63 29.13 5.1801 4.33 12.56 6.16 19.08 4.11 9.76-2.36 16.6-12.38 15.93-22.28-0.1699-6.14-3.2999-11.79-7.6599-15.96z" fill="#fff" stroke="#fff"/>
  <path d="m1123.2 788.36c3.53-1.59 7.27 2.11 6.74 5.67-0.12 3.21-3.65 6.04-6.76 4.6-4.25-1.69-4.25-8.6 0.02-10.27z" fill="#fff" stroke="#fff"/>
  <path d="m1312.3 788.35c3.54-1.5699 7.27 2.16 6.71 5.72-0.14 3.17-3.61 5.96-6.7 4.59-4.31-1.66-4.31-8.65-0.01-10.31z" fill="#fff" stroke="#fff"/>
  <path d="m1194.2 800.31c2.24-5.42 8.5801-6.78 13.84-6.9-0.25 31.19 0.1101 62.39-0.1599 93.58-9.98 2.32-20.04 4.33-29.89 7.13 1.88 5.67 7.21 9.02 12.27 11.59 5.5599 2.87 11.62 4.55 17.59 6.38 0.33 14.63-0.04 29.26 0.17 43.9 0.0599 3.08-0.17 6.17-0.39 9.26-3.3401-4.58-6.8401-9.86-12.64-11.41-3.85-1.23-7.55 0.87-11.1 2.06-9.8201 3.5699-20.61 5.27-30.94 3.11-4.37-0.94-8.36-3.01-12.32-4.98 5.14 6.29 6.5299 14.59 11 21.31 11.33 20.42 32.85 35.29 56.44 36.51-0.09 1.72-0.16 3.45-0.22 5.2-7.67 0.18-14.84-2.63-22.19-4.28 5.17 7.06 14.23 9.15 22.22 11.31 0.25 19.94 0.02 39.89 0.02 59.84-16.38-8.77-31.94-19.02-46.9-30.02-3.77-2.72-7.1901-5.9501-11.33-8.11 3.6101 7.24 8.8601 13.5 13.1 20.38 23.05 33.97 45.97 68.01 69 101.99 11.23 17.03 23.25 33.56 33.94 50.94-6.09 26.13-14.15 51.79-23.52 76.93-22.81-0.05-45.61-0.0601-68.41 0.01-24.16-64.06-38.67-132.45-36.42-201.15 1.08-3.66 0.61-7.5 0.65-11.25 0.48-5.48 0.34-11.02 1.58-16.4-0.8-0.03-1.37 0.24-1.72 0.8201-0.0601-6.6901-0.12-13.37-0.26-20.05-0.14-4.39 0.27-8.9-1.23-13.11-0.3101-0.53-0.9301-1.6-1.24-2.13-15.35-14.64-29.2-30.75-42.58-47.17-0.0399-0.05-0.12-0.15-0.1599-0.2-2.29-2.92-4.55-5.85-6.8101-8.78-0.05-0.06-0.15-0.2-0.21-0.27-0.9501-1.2599-1.87-2.5-2.78-3.73l-0.2-0.28c-2.3-3.23-4.5601-6.47-6.8-9.72-0.05-0.08-0.14-0.22-0.1901-0.3-8.9199-13.64-17.24-27.73-23.89-42.63-0.04-0.09-0.12-0.26-0.16-0.34-1.38-2.98-2.71-5.96-3.96-8.98 0.75-3.54 2.86-6.58 3.96-9.99 6.51-18.29 6.79-38.17 4.79-57.29 5.95 2.83 12.45 4.27 18.92 5.36 22.11 3.93 44.72 2.57 66.97 0.66 9.0601-1.02 18.49-1.96 26.65-6.39 7.75-4.21 12.49-12.08 16.42-19.68 3.7903-7.27 5.9203-15.22 9.0902-22.73z" fill="#F1D4A8" stroke="#F1D4A8"/>
  <path d="m1208.1 793.41c4.1001-0.0099 8.55 0.05 12.13 2.3701 2.7201 1.81 3.88 5.04 5.1101 7.92 4.0699 10.4 8.4299 20.9 15.34 29.78 3.6 4.65 8.64 8.08 14.22 9.91 10.98 3.63 22.66 3.95 34.11 4.69 13.6 0.73 27.22-0.06 40.8-1 11.74-1.24 23.89-2.6 34.37-8.51-4.36 20.26-5.9401 43.22 5.71 61.45 1.22 2.68 3.96 3.81 6.62 4.58-2.61 1.13-6.5699 1.08-7.5499 4.3-7.5801 17.1-16.42 33.64-26.37 49.48-0.03 0.06-0.1001 0.17-0.14 0.23-0.4501 0.68-1.3401 2.05-1.79 2.73-0.05 0.08-0.15 0.23-0.21 0.31-1.26 1.9-2.53 3.81-3.8201 5.7-0.0499 0.07-0.15 0.21-0.2 0.29-1.59 2.26-3.2001 4.51-4.8201 6.75-0.0399 0.05-0.12 0.16-0.1599 0.21-1.78 2.41-3.5801 4.79-5.4701 7.11-1.5299 0.13-2.1899 0.95-1.95 2.48-13.88 17.66-28.78 34.6-44.99 50.17-0.24 11.22-0.39 22.44-0.7 33.66-0.42-0.3301-1.26-0.99-1.6801-1.3101 0.48 5.64 1.01 11.27 1.35 16.93-0.13 3.73-0.27 7.5 0.5801 11.17 1.47 41.78-3.5 83.59-12.82 124.29-10.69-17.38-22.71-33.91-33.94-50.94-23.03-33.98-45.95-68.02-69-101.99-4.24-6.88-9.49-13.14-13.1-20.38 4.14 2.1599 7.5601 5.39 11.33 8.11 14.96 11 30.52 21.25 46.9 30.02 0-19.95 0.23-39.9-0.02-59.84-7.99-2.16-17.05-4.2499-22.22-11.31 7.3501 1.65 14.52 4.46 22.19 4.28 0.0599-1.75 0.13-3.48 0.22-5.2l0.88-0.02c16.66-0.98 32.75-8.58 44.33-20.56 5.5499-5.65 10.18-12.18 13.84-19.2 3.27-5.89 4.7899-12.65 9.08-17.96-4.4 2.14-8.84 4.44-13.72 5.25-10.15 1.62-20.56-0.12-30.1-3.72-3.5901-1.31-7.51-3.1-11.31-1.53-5.66 2.21-9.4399 7.43-12.34 12.54-0.28-0.35-0.83-1.05-1.1-1.4 0.22-3.09 0.45-6.18 0.39-9.26-0.2101-14.64 0.1599-29.27-0.17-43.9-5.97-1.83-12.03-3.51-17.59-6.38-5.0601-2.57-10.39-5.92-12.27-11.59 9.85-2.8 19.91-4.81 29.89-7.13 0.2702-31.19-0.09-62.39 0.16-93.58z" fill="#E5BC84" stroke="#E5BC84"/>
  <path d="m1986.4 876.36c2.6801-1.9 6.3-1.4 9.3-0.52-5.16 3.7599-10.04 8.14-12.87 13.97-4.91 8.88-6.02 19.13-9.4401 28.56-7.89 22.46-19.09 43.62-31.49 63.89-3.71-1.55-7.22-3.69-11.21-4.43 7.84 6.11 16.71 10.81 24.63 16.85 11.86 8.97 23.78 18.35 32.53 30.55 1.02 1.38 2.15 2.7001 3.3201 4.01-1.36-5.94-5.71-10.34-8.6901-15.42 2.17-4.1 5.42-7.54 7.91-11.46 11.63-16.69 22.11-34.26 30.02-53.02 2.5699-6.02 3.75-12.78 8.0699-17.91 2.41-3.57 6.9601-4.13 10.77-5.29l0.23-0.06c0.0801 8.68-1.1499 17.33-2.22 25.94-1.63 17.27-5.9299 34.19-10.37 50.94-11.24 40.71-30.09 79.4-55.9 112.86-6.1799 7.87-11.37 16.58-18.6 23.57-5.24 7.17-10.78 14.1-15.58 21.59-5.77 9.05-12.37 17.62-16.55 27.59-7.34-8.5399-15.53-16.34-24.37-23.31-0.4-0.3101-1.2-0.9401-1.6-1.25-0.41-1.27-1.25-1.95-2.53-2.03-0.38-0.22-1.15-0.6799-1.53-0.91-0.35-1.33-1.2-1.99-2.5399-1.98-0.51-0.37-1.53-1.11-2.05-1.47-0.0699-0.0599-0.22-0.16-0.29-0.21-4.6-2.99-9.1599-6.0601-14.06-8.52-8.35-4.64-17.16-8.37-26.17-11.5 3.04-2.39 0.5901-5.5-0.64-8.02-3.3999-9.61-5.83-19.52-8.62-29.3-2.5-8.95-5.2999-17.81-8.5-26.53-1.46-6.2001-4.7699-12.05-4.5-18.56 1.52-14.6 5-28.89 6.9801-43.41 1.2-5.46 2.4099-10.93 3-16.5 0.6799-4.32 0.2599-8.74 1.1599-13.03 1.5701-8.83 3.11-17.7 3.63-26.66 0.48-2.36 2.17-4.3 3.84-5.96 2.13-1.92 5.1101-1.02 7.63-0.66 1.03 0.3 2.0601 0.65 3.0901 1.07 5.6 2.1 10.67 5.79 14.15 10.69 3.9099 6.74 6.08 14.6 5.1699 22.42 0.49 6.86-2.8199 13.16-3.0599 19.94-1.1801 9-2.26 19 2.6799 27.13 3.74 6.3099 11.19 8.61 16.14 13.72 11.28 10.3 17.08 25.27 18.39 40.28 0.85-17.34-7-34.39-19.37-46.3-4.55-5.08-11.22-8.24-14.08-14.73 1.0599-2.44 3.62-3.64 5.36-5.54 6.02-7.51 10.94-15.8 16.85-23.39 23.37-32.59 45.74-65.89 69.56-98.14 6.2502-7.7601 14.04-14.19 22.42-19.55z" fill="#F1D4A8" stroke="#F1D4A8"/>
  <path d="m1996.1 875.99c2.3101 0.52 4.4601-0.73 6.7001-1.14 3.76 0.1801 7.61 0.6801 11.12 2.15 2.9199 2.13 5.22 5.02 8.12 7.22-3.64 1.42-7.66 2.4301-10.43 5.36-4.48 4.47-7.3099 10.51-8.14 16.77-1.3099 8.41-4.5399 16.36-8.08 24.04-8.1901 17.77-18.5 34.46-29.19 50.8-2.5499 3.48-4.7799 7.22-7.5599 10.52-1.1801 0.36-2.16-0.78-3.14-1.18-3.9-2.4901-7.9399-4.7401-11.77-7.32 15.36-21.85 28.65-45.49 36.23-71.22 2.5801-8.5 3.11-18.01 8.8301-25.22 2.74-4.2 6.9399-7.03 11.16-9.57-1.32-0.42-2.59-0.81-3.85-1.21z" fill="#F1D4A8" stroke="#F1D4A8"/>
  <path d="m1995.7 875.84l0.4299 0.15c1.26 0.4 2.53 0.79 3.85 1.21-4.22 2.54-8.4199 5.37-11.16 9.57-5.7201 7.21-6.25 16.72-8.8301 25.22-7.58 25.73-20.87 49.37-36.23 71.22 3.8301 2.58 7.87 4.83 11.77 7.32 0.98 0.4 1.96 1.54 3.14 1.18 2.78-3.3 5.01-7.04 7.5599-10.52 10.69-16.34 21-33.03 29.19-50.8 3.54-7.68 6.77-15.63 8.08-24.04 0.8301-6.2599 3.66-12.3 8.14-16.77 2.77-2.93 6.79-3.94 10.43-5.36 2.9399 0.9901 6.3999 1.6 8.36 4.3-6.27-0.55-13.36 0.05-17.78 5.09-6.45 6.37-5.47 16.02-7.99 24.06-7.13 26.07-21.89 49.36-38.75 70.2-1.52 2.02-3.61 3.71-4.5699 6.08 0.33 1.09 1.58 1.57 2.4099 2.35 6.12 4.58 11.82 9.77 16.72 15.66 10.64-14.85 20.28-30.44 29.14-46.44 4.75-8.61 9.03-17.53 11.99-26.92 1.4801-4.7 4.5601-8.7 8.3301-11.8-0.4-0.89-0.75-1.78-1.0701-2.65l0.64 0.3c0.5 0.23 1.51 0.7 2.02 0.93 2.5701-0.4 5.36-0.63 7.73 0.76-3.8099 1.16-8.36 1.72-10.77 5.29-4.3199 5.13-5.5 11.89-8.0699 17.91-7.91 18.76-18.39 36.33-30.02 53.02-2.49 3.92-5.74 7.36-7.91 11.46 2.9801 5.08 7.3301 9.48 8.6901 15.42-1.17-1.3099-2.3-2.63-3.3201-4.01-8.75-12.2-20.67-21.58-32.53-30.55-7.92-6.04-16.79-10.74-24.63-16.85 3.99 0.74 7.5 2.88 11.21 4.43 12.4-20.27 23.6-41.43 31.49-63.89 3.42-9.43 4.53-19.68 9.4401-28.56 2.8297-5.83 7.7097-10.21 12.87-13.97z" fill="#E5BC84" stroke="#E5BC84"/>
  <path d="m2012.6 893.61c4.42-5.04 11.51-5.64 17.78-5.09l0.5599 0.01c4.7101 11.49 2.4601 24.38-1.0599 35.88l-0.4301 0.04-0.64-0.3c0.3201 0.87 0.67 1.7599 1.0701 2.65-3.77 3.1-6.85 7.1-8.3301 11.8-2.96 9.39-7.24 18.31-11.99 26.92-8.86 16-18.5 31.59-29.14 46.44-4.8999-5.89-10.6-11.08-16.72-15.66-0.83-0.78-2.08-1.26-2.4099-2.35 0.96-2.37 3.0499-4.06 4.5699-6.08 16.86-20.84 31.62-44.13 38.75-70.2 2.5201-8.0399 1.5401-17.69 7.9901-24.06z" fill="#F1D4A8" stroke="#F1D4A8"/>
  <path d="m1368.9 908.9c0.98-3.22 4.9399-3.17 7.5499-4.3 9.5701 3.17 18.59 7.75 27.47 12.46 14.15 8.18 28.31 18.22 35.82 33.21 5.91 10.91 5.4 24.48-0.02 35.46-6.3199 14.06-17.74 24.91-29.29 34.73-16.33 13.53-35.29 23.24-52.6 35.37-7.1 5.0801-14.16 10.69-18.69 18.3-4.15 6.11-5.41 13.62-5.26 20.89-12.99-3.34-26.06-7.1-39.5-7.89-5.37-6.37-10.59-12.87-16.1-19.11 0.3099-11.22 0.46-22.44 0.7-33.66 16.21-15.57 31.11-32.51 44.99-50.17 1.22-0.37 1.87-1.19 1.95-2.48 1.89-2.32 3.6901-4.7 5.4701-7.11 0.0399-0.05 0.12-0.16 0.1599-0.21 1.62-2.24 3.2301-4.49 4.8201-6.75 0.0499-0.08 0.15-0.22 0.2-0.29 1.29-1.89 2.5601-3.8 3.8201-5.7 0.0599-0.08 0.1599-0.23 0.21-0.31 0.45-0.6801 1.34-2.05 1.79-2.73 0.0399-0.06 0.11-0.17 0.14-0.23 9.9496-15.84 18.79-32.38 26.37-49.48z" fill="#301D16" stroke="#301D16"/>
  <path d="m1041.6 915.57c1.63-2.06 3.67-3.74 5.8401-5.2 1.25 3.02 2.58 6 3.96 8.98 0.04 0.08 0.12 0.25 0.16 0.34 6.6499 14.9 14.97 28.99 23.89 42.63 0.05 0.08 0.14 0.22 0.1901 0.3 2.24 3.25 4.5 6.49 6.8 9.72 0.0499 0.0699 0.1499 0.21 0.2 0.28 0.91 1.23 1.83 2.47 2.78 3.73 0.0599 0.07 0.1599 0.21 0.21 0.27 2.26 2.93 4.52 5.86 6.8101 8.78 0.0399 0.05 0.12 0.15 0.1599 0.2 13.38 16.42 27.23 32.53 42.58 47.17 0.3099 0.53 0.9299 1.6 1.24 2.13 1.5 4.21 1.09 8.72 1.23 13.11 0.14 6.6799 0.2 13.36 0.26 20.05-6.8301 7.1899-13.05 15.08-19.09 22.99-16.93 4.0299-33.92 7.88-50.58 12.96-2.9-10.24-6.84-20.18-11.6-29.69-8.01-16-20.28-29.55-34.03-40.82-3.66-4.38-9.29-6.0601-13.65-9.52-4.57-3.15-7.6-7.88-10.65-12.39-9.49-13.94-16.41-31.16-12.88-48.24 3.43-15.3 16.08-26.52 29.57-33.32 3.54-1.48 7.49-1.51 11.08-2.89 6.0899-2.38 11.33-6.59 15.52-11.57z" fill="#301D16" stroke="#301D16"/>
  <path d="m1051.4 919.35c0.04 0.08 0.12 0.25 0.16 0.34-0.04-0.09-0.1199-0.26-0.16-0.34z" enable-background="new " fill="#9D866A" opacity=".83" stroke="#9D866A"/>
  <path d="m1140.7 954.03c3.96 1.97 7.95 4.04 12.32 4.98 10.33 2.16 21.12 0.46 30.94-3.11 3.5499-1.19 7.25-3.29 11.1-2.06 5.7999 1.55 9.2999 6.83 12.64 11.41 0.27 0.35 0.8199 1.05 1.1 1.4-0.21 0.37-0.63 1.11-0.83 1.48-2.38 0.15-4.7101 0.5-7.05 0.74-17.37 1.07-35.97 1.6-51.87-6.58 7.1 12.6 17.08 23.9 29.93 30.82 8.8701 4.85 19.02 7.05 29.1 6.94l0.8999-0.01c-0.0199 3.93-0.0099 7.86 0.04 11.79l-0.88 0.02c-23.59-1.22-45.11-16.09-56.44-36.51-4.4701-6.7201-5.86-15.02-11-21.31z" fill="#E97954" stroke="#E97954"/>
  <path d="m1208.8 966.65c2.9-5.11 6.6799-10.33 12.34-12.54 3.8-1.57 7.72 0.22 11.31 1.53 9.5399 3.6 19.95 5.34 30.1 3.72 4.88-0.81 9.3199-3.11 13.72-5.25-4.29 5.31-5.8099 12.07-9.08 17.96-3.66 7.02-8.29 13.55-13.84 19.2-11.58 11.98-27.67 19.58-44.33 20.56-0.0499-3.93-0.0599-7.86-0.04-11.79 15.62 0.23 30.88-6.3 42.09-17.06 6.02-5.74 11.31-12.32 15.18-19.7-18.28 8.0699-38.89 6.59-58.28 4.85 0.1999-0.37 0.6199-1.11 0.8299-1.48z" fill="#D47150" stroke="#D47150"/>
  <path d="m1342.4 958.61c0.0399-0.06 0.11-0.17 0.14-0.23-0.03 0.06-0.1 0.17-0.14 0.23z" enable-background="new " fill="#826849" opacity=".8" stroke="#826849"/>
  <path d="m1340.4 961.65c0.0599-0.08 0.1599-0.23 0.21-0.31-0.05 0.08-0.15 0.23-0.21 0.31z" enable-background="new " fill="#947754" opacity=".83" stroke="#947754"/>
  <path d="m1075.4 962.32c0.05 0.08 0.14 0.22 0.1901 0.3-0.05-0.08-0.14-0.22-0.1901-0.3z" enable-background="new " fill="#73604C" opacity=".77" stroke="#73604C"/>
  <path d="m1149 962.29c15.9 8.18 34.5 7.65 51.87 6.58 2.34-0.04 4.7 0.04 7.0599 0.1 0.13 10.35-0.0399 20.72 0.1001 31.08-10.08 0.11-20.23-2.09-29.1-6.94-12.85-6.92-22.83-18.22-29.93-30.82z" fill="#fff" stroke="#fff"/>
  <path d="m1207.9 968.13c19.39 1.74 40 3.22 58.28-4.85-3.87 7.3799-9.1599 13.96-15.18 19.7-11.21 10.76-26.47 17.29-42.09 17.06l-0.8999 0.01c-0.14-10.36 0.0299-20.73-0.1001-31.08-2.36-0.06-4.72-0.14-7.0599-0.1 2.3399-0.24 4.6699-0.59 7.05-0.74z" fill="#EBEBEB" stroke="#EBEBEB"/>
  <path d="m1336.4 967.64c0.0499-0.08 0.15-0.22 0.2-0.29-0.05 0.07-0.15 0.21-0.2 0.29z" enable-background="new " fill="#846A4B" opacity=".8" stroke="#846A4B"/>
  <path d="m1082.4 972.34c0.0499 0.0699 0.1499 0.21 0.2 0.28-0.0501-0.07-0.1501-0.21-0.2-0.28z" enable-background="new " fill="#73604C" opacity=".77" stroke="#73604C"/>
  <path d="m1331.4 974.6c0.0399-0.05 0.12-0.16 0.1599-0.21-0.0399 0.05-0.1199 0.16-0.1599 0.21z" enable-background="new " fill="#856A4B" opacity=".8" stroke="#856A4B"/>
  <path d="m1085.4 976.35c0.0599 0.07 0.1599 0.21 0.21 0.27-0.0501-0.06-0.15-0.2-0.21-0.27z" enable-background="new " fill="#7F6C55" opacity=".78" stroke="#7F6C55"/>
  <path d="m1324 984.19c-0.24-1.53 0.42-2.35 1.95-2.48-0.08 1.29-0.73 2.11-1.95 2.48z" enable-background="new " fill="#B08F65" opacity=".89" stroke="#B08F65"/>
  <path d="m1092.4 985.4c0.0399 0.05 0.12 0.15 0.1599 0.2-0.04-0.05-0.12-0.15-0.1599-0.2z" enable-background="new " fill="#87725B" opacity=".79" stroke="#87725B"/>
  <path d="m1871.1 1030c-4.9399-8.13-3.86-18.13-2.6799-27.13-0.13 4.06-0.0701 8.13 0.3099 12.18 0.64 2.4 1.38 4.79 2.04 7.21 0.35 0.18 1.0599 0.54 1.41 0.71 2.86 6.49 9.5299 9.65 14.08 14.73 12.37 11.91 20.22 28.96 19.37 46.3-1.3101-15.01-7.11-29.98-18.39-40.28-4.95-5.11-12.4-7.4101-16.14-13.72z" fill="#E5BC84" stroke="#E5BC84"/>
  <path d="m1135.2 1032.8c0.3099 0.53 0.9299 1.6 1.24 2.13-0.31-0.53-0.93-1.6-1.24-2.13z" enable-background="new " fill="#402F25" opacity=".79" stroke="#402F25"/>
  <path d="m1137.9 1068.1c0.35-0.5801 0.9199-0.8501 1.72-0.8201-1.24 5.38-1.1 10.92-1.58 16.4-1.11 3.66-1.4301 7.47-0.65 11.25-2.25 68.7 12.26 137.09 36.42 201.15 6.8899 18.26 14.67 36.19 23.4 53.65 1.41 2.77 3.0901 5.4 4.74 8.05 1.2201 3.99 3.4501 7.55 5.16 11.34-15.44-8.36-29.64-18.93-43.38-29.85-8.99-7.29-17.53-15.12-25.55-23.47-14.57-13.91-27.37-29.65-38.37-46.52-3.8101-6.29-8.3601-12.31-10.94-19.22 1.63-4.5701 5.28-8.12 7.96-12.12 6.28-8.98 13.23-17.49 19.15-26.71-6.49-4.49-13.93-7.2799-20.64-11.39-9.0299-4.75-18.24-9.15-27.09-14.23 2.8-16.2 10.17-31.12 17.76-45.54 9.36-17.31 20.62-33.55 32.8-48.98 6.0401-7.9099 12.26-15.8 19.09-22.99z" fill="#B13B75" stroke="#B13B75"/>
  <path d="m1276.6 1066.7c0.42 0.3201 1.26 0.98 1.6801 1.3101 5.5099 6.24 10.73 12.74 16.1 19.11 12.58 16.49 24.92 33.26 34.85 51.52 7.78 14.9 15.68 30.17 18.47 46.93-9.45 5.4401-19.32 10.06-28.9 15.25-6.14 3.8501-13.23 6.0801-18.87 10.72 8.39 11.73 17.09 23.24 25.5 34.95 1.36 1.6801 2.2201 3.92 0.8401 5.9-12.78 23.16-28.92 44.55-48.04 62.87-12.99 13.81-27.67 25.93-43.08 36.94-8.39 6.16-17.14 11.86-26.19 16.98 2.52-6.74 7.22-12.53 8.85-19.61 4.7201-8.89 9.61-17.72 13.62-26.97 3.74-8.7999 7.3501-17.65 10.76-26.58 9.37-25.14 17.43-50.8 23.52-76.93 9.3201-40.7 14.29-82.51 12.82-124.29 0.7999-3.7401 0.6699-7.5601-0.5801-11.17-0.3401-5.66-0.8701-11.29-1.3501-16.93z" fill="#972E62" stroke="#972E62"/>
  <path d="m1137.4 1094.9c-0.78-3.78-0.46-7.59 0.65-11.25-0.04 3.75 0.43 7.59-0.65 11.25z" enable-background="new " fill="#813052" opacity=".98" stroke="#813052"/>
  <path d="m1278 1083.6c1.25 3.61 1.38 7.4299 0.5801 11.17-0.8501-3.67-0.7101-7.44-0.5801-11.17z" enable-background="new " fill="#712746" opacity=".97" stroke="#712746"/>
  <path d="m1294.4 1087.1c13.44 0.79 26.51 4.55 39.5 7.89 10.65 2.89 21.11 6.4399 31.55 10 21.33 7.62 42.31 16.19 62.94 25.52 18.99 8.37 37.38 18.02 56.18 26.81 2.9 1.28 5.3201 3.4 7.1901 5.97 11.71 12.68 24.03 25.03 33.41 39.62 8.0199 13.12 15.55 26.54 22.77 40.11 1.4301 2.7799 3.76 4.9199 5.8201 7.25 29.55 32.76 59.09 65.53 88.63 98.29 1.72 1.9401 3.28 4.0701 5.35 5.6901 8.12 6.52 16.14 13.16 24.24 19.7 16.18-22.13 32.16-44.42 48.4-66.5 10.4-13.6 21.52-26.64 31.48-40.58 24.31-33.67 47.54-68.09 70.29-102.82 5.84-9.13 11.97-18.08 17.49-27.4 11.01 2.73 21.3 7.6 31.61 12.21 4.9 2.46 9.46 5.53 14.06 8.52 0.0701 0.0499 0.2201 0.15 0.29 0.21 0.52 0.36 1.54 1.1 2.05 1.47 0.21 1.4301 1.0499 2.0901 2.5399 1.98 0.38 0.2301 1.15 0.6901 1.53 0.91 0.14 1.51 0.99 2.1801 2.53 2.03 0.4 0.3099 1.2 0.9399 1.6 1.25 8.61 7.83 17.18 15.75 24.69 24.68-28.01 59.4-57.06 118.3-86.98 176.75-16.44 31.94-33.22 63.72-50.82 95.04-14.02 24.61-28.16 49.24-44.7 72.27-5.4301 7.0601-10.55 15.22-19.08 18.84-3.26 0.55-6.96 1.8401-10.05 0.1801-66.27-29.46-131.66-61.97-190.95-104.06-18.55-13-36.83-26.41-54.34-40.77-0.86 0.13-1.7 0.28-2.52 0.4401-8.71 38.01-22.91 75.78-47.87 106.22 1.22 2.9401-0.08 6.0801-0.23 9.11-5.49 47.81-8.3101 95.94-8.25 144.07 0.2 44.83 2.8 89.83 11.06 133.96 2.66 14.83 6.5901 29.37 10.55 43.9 4.08 21.24 7.72 42.57 11.6 63.86-1.08 0.86-2.13 1.76-3.21 2.63-24.06 18.85-51.69 32.74-80.39 43.03-34.97 12.58-71.56 20.3-108.42 24.69-4.6799 0.5701-9.38 1.01-14.08 1.29-7.7-39.52-15.11-79.11-22.8-118.63-0.38-1.74-0.7899-3.41-1.12-5.12 0.12-65.08 0-130.15 0.0601-195.23 3.98-0.91 7.25-3.7201 8.97-7.38 4.34-9 4.12-20.34-1.09-28.92-1.64-3.02-4.8-4.5-7.88-5.5699-0.0701-18.67 0.1-37.34-0.0601-56.01 4.8-1.27 8.4601-5.03 10.02-9.6801 3.04-8.61 2.88-18.87-2.0599-26.74-1.73-2.97-4.8401-4.54-7.9301-5.67 0.0701-50.79 0-101.58 0.02-152.37-0.1-1.83-0.23-3.63-0.48-5.4099 4.45-4.28 6.58-10.25 10.32-15.08-1.63 7.0801-6.33 12.87-8.85 19.61 9.05-5.12 17.8-10.82 26.19-16.98 15.41-11.01 30.09-23.13 43.08-36.94 19.12-18.32 35.26-39.71 48.04-62.87 1.38-1.98 0.5199-4.22-0.8401-5.9-8.4099-11.71-17.11-23.22-25.5-34.95 5.64-4.64 12.73-6.87 18.87-10.72 9.5801-5.1899 19.45-9.8099 28.9-15.25-2.79-16.76-10.69-32.03-18.47-46.93-9.9296-18.26-22.27-35.03-34.85-51.52m14.68 700.15c-24.42 6.98-49.06 13.33-74.02 17.98 2.4801 7.95 4.9701 15.92 7.9901 23.69 11.51-2.9099 23.1-5.5 34.63-8.37 30.33-8 60.87-15.42 90.68-25.23 4.85-2.01 10.18-3.34 14.4-6.58-1.1801-7.3201-3.17-14.5-4.9501-21.67-22.86 6.8701-45.67 13.97-68.73 20.18z" fill="#842A56" stroke="#842A56"/>
  <path d="m1068.2 1104c16.66-5.08 33.65-8.9301 50.58-12.96-12.18 15.43-23.44 31.67-32.8 48.98-7.59 14.42-14.96 29.34-17.76 45.54 8.85 5.0801 18.06 9.4801 27.09 14.23 6.7101 4.11 14.15 6.8999 20.64 11.39-5.9199 9.2201-12.87 17.73-19.15 26.71-2.6799 4-6.33 7.5499-7.96 12.12 2.58 6.91 7.13 12.93 10.94 19.22 11 16.87 23.8 32.61 38.37 46.52 8.0199 8.35 16.56 16.18 25.55 23.47 13.74 10.92 27.94 21.49 43.38 29.85-1.71-3.7899-3.9399-7.35-5.16-11.34 1.9801 2.1901 3.9701 4.4 5.5701 6.92 0.25 1.7799 0.38 3.58 0.48 5.4099-0.02 50.79 0.05 101.58-0.02 152.37-5.04 1.3601-8.7 5.4601-10.15 10.4-3.0599 8.42-2.38 18.31 2.24 26.04 1.66 2.99 4.8401 4.4399 7.88 5.65 0.16 18.67-0.01 37.34 0.0601 56.01-7.5701 1.74-10.84 9.6499-11.71 16.62-0.8401 7.37 0.23 15.58 5.1699 21.43 1.6 2.0701 4.0901 3.0801 6.54 3.8201-0.0601 65.08 0.0599 130.15-0.0601 195.23-0.33 1.73-0.6699 3.47-1.01 5.24-7.3799 39.98-14.3 80.05-21.87 120-49.62-2.99-97.29-19.54-142.21-39.98-0.9 0.1899-1.78 0.41-2.65 0.65-17.25-10.63-35.54-19.41-52.84-29.94 4.15-2.96 8.14-6.59 9.7-11.61 9.5 3.04 18.89 6.4399 28.44 9.3199 6.75 0.76 14.97 1.7201 20.3-3.47 3.5699-3.21 5.1-7.9 7.1599-12.09 3.67 0.74 7.91 1.7 11.3-0.46 1.9299-1.66 2.58-4.27 3.75-6.42 3.51-7.53 10.63-13.74 10.26-22.68 5.76-1.5199 9.4299-6.9399 11.25-12.3 1.76-4.78 1.95-9.92 2.1-14.95 0.46-4.72-2.45-8.74-4.7-12.6-0.15-0.71-0.4301-2.12-0.5801-2.83 4.28-2.85 7.27-7.1801 9.38-11.79 22.61 6.21 45.41 11.72 68.22 17.21 2.9401-7.8199 5.53-15.77 7.9401-23.76-26.02-4.8401-51.7-11.36-77.05-18.91-4.6699-7.5-10.28-14.35-16.08-21-6.04-6.6901-12.5-13.23-20.39-17.73-7.46-4.1001-16.02-5.3101-24.33-6.4301-9.5-1.35-19.45-1.48-28.53 2.01 8.16-61.97 8.1-124.79 3.73-187.06-0.98-11.02-1.21-22.18-3.88-32.96-1.24-5.75-6.08-9.5499-9.28-14.18-13.63-18.05-23.76-38.54-31.4-59.77-37.13 43.04-74.16 86.17-111.25 129.24-3.5 4.29-7.48 8.2-10.67 12.74-2.06 8.85 5.71 15.32 8.63 22.92-1.09 3.3899-4.85 4.7799-7.39 6.9399 17.11 31.01 36.14 61.04 57.76 89.12 10.04 13.18 21.31 25.39 33.42 36.7 4.22 4.1599 8.97 7.7599 13.02 12.1 7.58 7.0299 15.77 13.34 23.96 19.66 0.52-0.33 1.57-1.0099 2.1-1.34-1.13 1.4401-2.25 2.91-3.49 4.27-3.25 3.14-6.33 6.45-9.25 9.91-10.38 11.9-20.3 24.3-27.97 38.16-5.71 10.27-11.01 21-13.33 32.61-0.91 4.49-1.91 9.1399-1.11 13.75 1.69 2.48 3.97 4.5099 6.1 6.6399-4.12 3.65-9.16 6.0801-13.1 10.01-3.35-1.7699-5.54-4.8999-8.01-7.63-27.5-31.17-55.06-62.27-82.55-93.43-25.44-28.65-50.23-57.86-74.33-87.64-3.45-4.08-6.42-8.53-9.0099-13.19-17.1-29.24-34.19-58.48-51.3-87.71-7.74-11.48-7.99-26.28-5.1299-39.39 1.93-8.5399 4.74-16.98 9.4399-24.43 36.48-61.12 73.45-121.98 112.48-181.51 3.93-5.72 7.39-11.79 12.07-16.94 11.42-13.82 20.75-29.17 31.12-43.76 25.95-37.73 51.85-75.5 77.82-113.21 2.19-2.8199 3.42-6.1899 5.04-9.33 0.75 0.11 2.26 0.33 3.01 0.4399 0.1-1.3199 0.63-2.37 1.6-3.1699 0.09-0.4601 0.26-1.39 0.35-1.8501 15.86-9.36 30.68-20.43 46.75-29.49 20.33-12.01 42.02-21.56 64.37-29.14 7.41-2.5394 14.89-4.9394 22.4-7.1894z" fill="#9A3265" stroke="#9A3265"/>
  <path d="m1885.3 1157.4c0.0701 0.0499 0.2201 0.15 0.29 0.21-0.0699-0.0599-0.2199-0.16-0.29-0.21z" enable-background="new " fill="#B39275" opacity=".77" stroke="#B39275"/>
  <path d="m1887.7 1159.1c1.34-0.01 2.1899 0.65 2.5399 1.98-1.4899 0.1101-2.3299-0.55-2.5399-1.98z" enable-background="new " fill="#9C6865" opacity=".82" stroke="#9C6865"/>
  <path d="m1891.7 1162c1.28 0.0801 2.12 0.76 2.53 2.03-1.54 0.15-2.39-0.52-2.53-2.03z" enable-background="new " fill="#936260" opacity=".77" stroke="#936260"/>
  <path d="m1173.8 1296c22.8-0.0701 45.6-0.0601 68.41-0.01-3.4099 8.9299-7.02 17.78-10.76 26.58-4.01 9.25-8.8999 18.08-13.62 26.97-3.74 4.8301-5.87 10.8-10.32 15.08-1.6-2.52-3.59-4.73-5.5701-6.92-1.6499-2.65-3.33-5.28-4.74-8.05-8.73-17.46-16.51-35.39-23.4-53.65z" fill="#282341" stroke="#282341"/>
  <path d="m1197.8 1532.8c1.4501-4.9399 5.11-9.0399 10.15-10.4 3.09 1.13 6.2001 2.7001 7.9301 5.67 4.9399 7.87 5.1 18.13 2.0599 26.74-1.5599 4.65-5.22 8.41-10.02 9.6801-3.0399-1.2101-6.22-2.66-7.88-5.65-4.62-7.7301-5.3-17.62-2.24-26.04z" fill="#B13B75" stroke="#B13B75"/>
  <path d="m1196.3 1637.2c0.87-6.9701 4.1399-14.88 11.71-16.62 3.08 1.0699 6.24 2.5499 7.88 5.5699 5.21 8.58 5.4299 19.92 1.09 28.92-1.72 3.6599-4.99 6.47-8.97 7.38-2.45-0.74-4.9401-1.75-6.54-3.8201-4.94-5.8498-6.01-14.06-5.17-21.43z" fill="#B13B75" stroke="#B13B75"/>
  <path d="m1005.5 1743.1c9.08-3.49 19.03-3.36 28.53-2.01 8.3099 1.12 16.87 2.33 24.33 6.4301 7.89 4.5 14.35 11.04 20.39 17.73 5.8 6.65 11.41 13.5 16.08 21 5.1 7.5599 5.01 17.48 0.89 25.46-2.11 4.61-5.1 8.9401-9.38 11.79-7.88-15.48-18.5-29.89-32.28-40.63-3.5099-2.9401-7.0499-6.0601-11.47-7.51-9.16-3.15-18.97-3.8-28.59-3.71-4.14 0.0599-8.41-0.5801-12.37 0.74 12.64 2.0699 25.53 2.85 38.01 5.9399 6.36 1.38 10.94 6.3 15.91 10.13 8.5099 7.4501 16.8 15.42 22.84 25.07 3.0699 4.12 4.9299 9.0599 8.53 12.8 2.25 3.86 5.1599 7.88 4.7 12.6-0.15 5.03-0.34 10.17-2.1 14.95-1.8201 5.36-5.49 10.78-11.25 12.3 0.37 8.9401-6.75 15.15-10.26 22.68-1.17 2.15-1.8201 4.76-3.75 6.42-3.39 2.1599-7.63 1.2-11.3 0.46-2.0599 4.1899-3.59 8.88-7.1599 12.09-5.3301 5.1901-13.55 4.23-20.3 3.47-9.55-2.88-18.94-6.2799-28.44-9.3199-1.56 5.02-5.55 8.65-9.7 11.61-1.72 0.96-3.51 1.8201-5.36 2.51-4.76 0.95-9.72 2.1801-14.51 0.61-5.25-0.98-9.45-4.5599-12.74-8.5599-2.25-2.8301-5.56-4.4501-8.28-6.7301-7.56-5.74-14.29-12.47-21.27-18.87-2.13-2.13-4.41-4.1599-6.1-6.6399-0.8-4.6101 0.2-9.26 1.11-13.75 2.32-11.61 7.6201-22.34 13.33-32.61 7.67-13.86 17.59-26.26 27.97-38.16 0.3 4.5599-1.23 8.97-1.28 13.54-0.28 4.25 0.34 8.74-1.49 12.75-5.49 12.65-5.07 26.9-3.2 40.3 0.72-10.67 1.92-21.35 4.81-31.67 1.08-5.1499 3.85-10 3.43-15.39-0.2599-4.9199 0.1-9.8899 1.55-14.61 1.3199-5.13 3.97-9.76 5.43-14.83 1.24-1.36 2.36-2.83 3.49-4.27 2.09-2.62 4.82-4.7 6.64-7.52 0.97-4.2999 1.22-9.09 4.12-12.64 3.44-3.3899 8.12-5.1 11.7-8.3199 2.5999-2.3403 5.3199-4.7103 8.7899-5.6303m-23.62 65.24c19.31 5.98 38.48 12.81 56.43 22.19 6.3301 3.0599 12.33 6.7999 17.68 11.38 6.87 5.49 12.21 12.52 17.97 19.1-3.62-10.02-11.11-18.13-18.9-25.15-16.54-14.26-37.54-22.31-58.8-26.26-4.7201-0.5901-9.8301-2.4701-14.38-1.2601m0.82 40.47c1.6 2.3401 4.19 3.5801 6.6 4.92 10.04 5.83 20.6 10.66 31 15.79 6.61 3.39 14.08 4.7799 20.37 8.8199 4.59 2.59 7.8999 6.75 11.16 10.79-0.26-5.54-4.6-10.23-9.2-12.85-15.01-6.91-29.89-14.06-44.91-20.96-4.98-2.2198-9.68-5.2098-15.02-6.5098z" fill="#F1D4A8" stroke="#F1D4A8"/>
  <path d="m1309.1 1787.3c23.06-6.2101 45.87-13.31 68.73-20.18 1.78 7.17 3.77 14.35 4.9501 21.67-4.22 3.24-9.55 4.5699-14.4 6.58-29.81 9.8101-60.35 17.23-90.68 25.23-11.53 2.87-23.12 5.4601-34.63 8.37-3.02-7.7699-5.51-15.74-7.9901-23.69 24.96-4.65 49.6-11 74.02-17.98z" fill="#972E62" stroke="#972E62"/>
  <path d="m1001.6 1772.4c3.96-1.3201 8.23-0.6801 12.37-0.74 9.62-0.0901 19.43 0.5599 28.59 3.71 4.42 1.45 7.9601 4.5699 11.47 7.51 13.78 10.74 24.4 25.15 32.28 40.63 0.15 0.71 0.4301 2.12 0.5801 2.83-3.6001-3.74-5.4601-8.6799-8.53-12.8-6.04-9.65-14.33-17.62-22.84-25.07-4.9701-3.83-9.55-8.75-15.91-10.13-12.48-3.09-25.37-3.87-38.01-5.94z" fill="#E5BC84" stroke="#E5BC84"/>
  <path d="m961.52 1791.4c2.92-3.4601 6-6.77 9.25-9.91-1.46 5.0699-4.11 9.7-5.43 14.83-1.45 4.7201-1.81 9.6901-1.55 14.61 0.42 5.39-2.35 10.24-3.43 15.39-2.89 10.32-4.09 21-4.81 31.67-1.87-13.4-2.29-27.65 3.2-40.3 1.83-4.01 1.21-8.5 1.49-12.75 0.05-4.57 1.58-8.98 1.28-13.54z" fill="#E5BC84" stroke="#E5BC84"/>
  <path d="m1094.8 1786.3c25.35 7.5499 51.03 14.07 77.05 18.91-2.41 7.99-5 15.94-7.9401 23.76-22.81-5.49-45.61-11-68.22-17.21 4.1201-7.9799 4.21-17.9-0.8899-25.46z" fill="#B13B75" stroke="#B13B75"/>
  <path d="m981.89 1808.4c4.55-1.21 9.66 0.67 14.38 1.26 21.26 3.95 42.26 12 58.8 26.26 7.79 7.02 15.28 15.13 18.9 25.15-5.76-6.5801-11.1-13.61-17.97-19.1-5.35-4.5801-11.35-8.3201-17.68-11.38-17.95-9.38-37.12-16.21-56.43-22.19z" fill="#E5BC84" stroke="#E5BC84"/>
  <path d="m982.71 1848.8c5.34 1.3 10.04 4.29 15.02 6.51 15.02 6.9 29.9 14.05 44.91 20.96 4.6 2.62 8.9399 7.3099 9.2 12.85-3.26-4.04-6.5699-8.2001-11.16-10.79-6.29-4.04-13.76-5.4299-20.37-8.8199-10.4-5.13-20.96-9.9601-31-15.79-2.41-1.3402-5-2.5802-6.6-4.9202z" fill="#E5BC84" stroke="#E5BC84"/>
  <path d="m1206.9 1862.9l1.03-0.08c0.0801 176.73 0 353.46 0.04 530.19-0.0601 4.24-0.01 8.5 0.27 12.77l0.01 0.3c-6.79-0.78-13.6-1.3901-20.39-2.1702-1.3 0.1802-3.78-1.23-4.04 0.8201-23.9-3.0801-47.96-4.99-71.91-7.7-37.66-3.79-75.29-7.78-112.94-11.61-4.34-0.5298-8.78-0.46-12.95-1.8799-9.89-1.96-20.06-2.24-30.06-3.52-13.18-65.08-16.33-131.83-13.92-198.06 3.36-86.2 16.12-171.86 34.93-255.98 0.59-2.88 1.56-5.71 1.56-8.6599 1.14-0.4 2.3-0.76 3.44-1.1801 1.85-0.6899 3.64-1.55 5.36-2.51 17.3 10.53 35.59 19.31 52.84 29.94 0.87-0.24 1.75-0.4601 2.65-0.65 44.92 20.44 92.59 36.99 142.21 39.98 7.57-39.95 14.49-80.02 21.87-120z" fill="#282341" stroke="#282341"/>
  <path d="m1208 1862.8l1.1-0.04c7.6901 39.52 15.1 79.11 22.8 118.63 4.7-0.28 9.4-0.72 14.08-1.29 36.86-4.39 73.45-12.11 108.42-24.69 28.7-10.29 56.33-24.18 80.39-43.03 14.87 62.58 25.76 126.12 32.48 190.09 5.42 52.31 7.73 105 5.6801 157.57-1.62 40.25-5.91 80.45-13.92 119.95-8.53 0.8801-17.05 1.79-25.57 2.6101-0.1101 0.48-0.3301 1.4299-0.4401 1.9099-62.67 6.05-125.29 12.92-187.95 19.2-3.4701 0.03-6.8201 0.8801-10.03 2.0901-0.02-0.6799-0.04-2.03-0.0601-2.71-8.88 0.8999-17.84 1.98-26.67 2.6699-0.28-4.27-0.3301-8.53-0.27-12.77-0.0401-176.73 0.0399-353.46-0.0401-530.19z" fill="#1C192E" stroke="#1C192E"/>
  <path d="m902.25 1898.3c0.49 0.5 0.49 0.5 0 0z" enable-background="new " fill="#2D0E1D" opacity=".29" stroke="#2D0E1D"/>
  <path d="m986.06 2383.5c4.17 1.4199 8.61 1.3501 12.95 1.8799 37.65 3.8301 75.28 7.8201 112.94 11.61 23.95 2.71 48.01 4.6199 71.91 7.7 0.64 52.77-1.0599 105.55-2.84 158.28-3.97 107.09-10.28 214.08-17.4 321-3.65 54.05-7.54 108.08-11.74 162.09-0.4 4.21-0.46 8.49-1.1801 12.7-2.26 20.14-0.22 40.68 4.8301 60.31 5.1699 23.17 11.44 46.19 13.9 69.86 3.12 28.91 4.37 58.06 3.5299 87.13-3.46 15.11-15.35 28.11-30.35 32.45-18.83 5.6099-38.96 1.8999-57.25-4-5.49-2.05-11.84-3.48-15.48-8.48-4.51-6.03-5.6801-13.78-6.2-21.08-0.75-12.93 1.22-25.83 4.09-38.39 8.48-42.66 11.48-86.22 12.4-129.64 0.24-13.64 0.2799-27.28-0.0601-40.91-0.0699-2.1799-0.41-4.28-1.03-6.3101-14.22-44.62-25.87-90.02-35.91-135.75-9.89-45.52-18.21-91.37-24.83-137.47-3.17-22.42-6.2-44.87-8.27-67.41-0.16-30.25 14.52-59.25 35.91-80.09-18.54-38.4-29.18-79.98-38.31-121.44-6.01-28.07-10.94-56.36-15.18-84.74-2.2498-16.42-4.8898-32.8-6.4298-49.3z" fill="#F1D4A8" stroke="#F1D4A8"/>
  <path d="m1245 2403.7c62.66-6.28 125.28-13.15 187.95-19.2-5.99 49.08-13.61 98.01-24.58 146.23-8.63 36.97-18.73 73.94-35.4 108.2 18.56 18.15 31.97 42.21 35.24 68.15 2.02 13.35-1.24 26.65-2.34 39.93-11.88 95.55-30.17 190.43-56.91 282.98-2.96 9.9399-5.88 19.91-9.08 29.79-1.8 6.22-0.89 12.79-1.25 19.19-0.2001 56.43 2.7699 113.23 14.78 168.51 2.0801 12.66 3.2201 25.84 0.24 38.46-1.5099 6.5801-5.36 13.28-12.07 15.63-16.96 6.6599-35.33 11.02-53.64 9.2998-9.77-0.99-19.5-4.3198-27.08-10.67-6.4301-5.29-10.94-12.58-13.9-20.28-1.3199-3.1799-1.13-6.6699-1.17-9.99-0.3199-27.31 0.79-54.64 3.8201-81.78 2.39-22.48 8.25-44.38 13.22-66.38 5.37-20.36 7.71-41.64 5.53-62.62-1.4501-10.3-1.6801-20.73-2.66-31.07-8.3099-108.59-15.52-217.27-21.41-326.03-2.9199-54.98-5.46-109.99-7.24-165.02-1.35-43.73-2.38-87.49-2.08-131.24 3.2099-1.21 6.5598-2.0601 10.03-2.0901z" fill="#E5BC84" stroke="#E5BC84"/>
  <path d="m1155.5 3119.1c-5.05-19.63-7.0901-40.17-4.8301-60.31 1.12 9.45 3.51 18.71 5.0801 28.11 9.25 48.59 18.05 97.28 25.52 146.19 4.09 28.12 6.4299 56.52 6.76 84.95-0.14 4.45 0.3899 8.99-0.4401 13.41-2.78 8.9001-10.02 15.45-17.27 20.87-14.31 10.19-30.57 17.32-47.04 23.22-3.7101 1.1299-7.4301 3.24-11.42 2.4199-6.83-1.27-13.11-4.4399-19.29-7.45-14.11-7.1799-27.54-15.62-40.78-24.27-7.6699-4.98-10.78-14.51-11.31-23.23-0.86-9.8799 1.91-19.5 3.6799-29.11 4.3201-21.36 8.8701-42.68 13.79-63.91 5.02-22.22 10.28-44.41 13.84-66.92 5.1001-34.19 7.37-68.78 7.26-103.34 0.62 2.03 0.9601 4.1301 1.03 6.3101 0.34 13.63 0.3 27.27 0.0601 40.91-0.92 43.42-3.92 86.98-12.4 129.64-2.87 12.56-4.84 25.46-4.09 38.39 0.5199 7.3 1.6899 15.05 6.2 21.08 3.64 5 9.99 6.4299 15.48 8.48 18.29 5.8999 38.42 9.6099 57.25 4 15-4.3401 26.89-17.34 30.35-32.45 0.8401-29.07-0.4099-58.22-3.5299-87.13-2.4602-23.67-8.7302-46.69-13.9-69.86z" fill="#453F3F" stroke="#453F3F"/>
  <path d="m1268.4 3059.2c2.1799 20.98-0.16 42.26-5.53 62.62-4.97 22-10.83 43.9-13.22 66.38-3.03 27.14-4.14 54.47-3.8201 81.78 0.04 3.3201-0.1499 6.8101 1.17 9.99 2.96 7.7 7.47 14.99 13.9 20.28 7.58 6.3501 17.31 9.6799 27.08 10.67 18.31 1.7202 36.68-2.6399 53.64-9.2998 6.71-2.3501 10.56-9.05 12.07-15.63 2.9801-12.62 1.8401-25.8-0.24-38.46-12.01-55.28-14.98-112.08-14.78-168.51 0.36-6.3999-0.55-12.97 1.25-19.19-0.1001 28.3 1.46 56.61 4.76 84.73 2.4299 22.27 7.0299 44.23 11.94 66.08 7.49 32.66 14.84 65.37 21.13 98.3 1.29 8.1001 1.35 16.62-1.22 24.5-1.8 5.3-5.05 10.35-9.98 13.24-15.74 10.18-31.65 20.34-48.84 27.93-5.2999 2-11.19 4.9099-16.89 2.75-16.02-5.4102-31.76-11.99-46.16-20.93-7.1801-4.5999-14.17-9.8699-19.21-16.83-2.35-3.46-4.5399-7.3601-4.5-11.64-0.21-20.85 0.89-41.68 2.8201-62.42 2.45-26.38 7.02-52.5 11.37-78.61 7.0902-42.7 15.35-85.19 23.26-127.73z" fill="#3D3532" stroke="#3D3532"/>
 </g>
</svg>
